<svg width="19" height="14" viewBox="0 0 19 14" fill="none" xmlns="http://www.w3.org/2000/svg">
<path id="Vector" fill-rule="evenodd" clip-rule="evenodd" d="M0.485352 3.60973C0.485352 1.63459 2.20506 0 4.36935 0H14.6014C16.7656 0 18.4854 1.63459 18.4854 3.60973C18.4854 5.14443 17.4505 6.47027 15.9736 6.98865V10.4448C15.9736 10.6794 15.9736 10.9011 15.9711 11.1092C15.9752 11.1503 15.9744 11.1916 15.9686 11.2325C15.967 11.5363 15.9463 11.8398 15.9066 12.1414C15.8363 12.6166 15.6806 13.0457 15.2988 13.3901C14.9178 13.7351 14.4431 13.8759 13.9173 13.9395C13.42 14 12.7921 14 12.0402 14H6.93049C6.17864 14 5.5507 14 5.05338 13.9395C4.52759 13.8759 4.05287 13.7351 3.67192 13.3901C3.29013 13.0457 3.1344 12.6166 3.06408 12.1414C3.02453 11.8397 3.00385 11.5363 3.00212 11.2325C2.99638 11.1916 2.99554 11.1503 2.99961 11.1092C2.9971 10.9011 2.9971 10.6794 2.9971 10.4448V6.98865C1.52019 6.47027 0.485352 5.14443 0.485352 3.60973ZM2.9971 5.72108C2.9971 5.08692 3.00045 4.55568 3.06408 4.12886C3.1344 3.65362 3.29013 3.22454 3.67108 2.88022C4.05287 2.53514 4.52759 2.39438 5.05254 2.33081C5.5507 2.27027 6.17864 2.27027 6.93049 2.27027H12.0411C12.7937 2.27027 13.4208 2.27027 13.9182 2.33081C14.444 2.39438 14.9187 2.53514 15.2996 2.87946C15.6814 3.22454 15.8371 3.65362 15.9075 4.12811C15.9711 4.55492 15.9744 5.08692 15.9744 5.72108C16.7229 5.28822 17.2303 4.51027 17.2303 3.60973C17.2303 2.22486 16.0339 1.13514 14.6022 1.13514H4.37018C2.93849 1.13514 1.74206 2.22486 1.74206 3.60973C1.74206 4.51027 2.2486 5.28822 2.9971 5.72108ZM8.85783 3.40541H6.97403C6.16692 3.40541 5.62438 3.40692 5.21999 3.45611C4.83402 3.50303 4.66824 3.584 4.5594 3.68314C4.45056 3.78151 4.36097 3.93059 4.30823 4.27946C4.25464 4.64497 4.25297 5.13535 4.25297 5.86487V10.5946H14.7186V5.86487C14.7186 5.13535 14.7169 4.64497 14.6625 4.27946C14.6106 3.93059 14.521 3.78076 14.4113 3.68238C14.3025 3.584 14.1375 3.50303 13.7515 3.45535C13.3472 3.40692 12.8046 3.40541 11.9975 3.40541H10.1137V6.60119L10.683 6.00032C10.7367 5.94368 10.8022 5.89714 10.8757 5.86336C10.9493 5.82959 11.0295 5.80924 11.1117 5.80348C11.194 5.79772 11.2767 5.80665 11.3551 5.82978C11.4335 5.85291 11.5062 5.88977 11.5688 5.93827C11.6315 5.98677 11.683 6.04595 11.7204 6.11243C11.7577 6.17891 11.7803 6.2514 11.7866 6.32574C11.793 6.40009 11.7831 6.47484 11.7575 6.54574C11.7319 6.61663 11.6912 6.68227 11.6375 6.73892L9.963 8.50443C9.90405 8.56674 9.83087 8.61676 9.74848 8.65106C9.6661 8.68536 9.57647 8.70312 9.48577 8.70312C9.39507 8.70312 9.30544 8.68536 9.22306 8.65106C9.14067 8.61676 9.06749 8.56674 9.00854 8.50443L7.33404 6.73892C7.22568 6.62452 7.17204 6.47589 7.18491 6.32574C7.19779 6.17559 7.27613 6.03621 7.4027 5.93827C7.52927 5.84033 7.6937 5.79184 7.85982 5.80348C8.02594 5.81512 8.18014 5.88592 8.2885 6.00032L8.85783 6.60119V3.40541ZM14.6918 11.7297H4.27976C4.2873 11.8236 4.29651 11.9098 4.30906 11.9908C4.36097 12.3397 4.45056 12.4895 4.56024 12.5879C4.66908 12.6863 4.83402 12.7672 5.21999 12.8149C5.62438 12.8634 6.16692 12.8649 6.97403 12.8649H11.9975C12.8046 12.8649 13.3472 12.8634 13.7515 12.8142C14.1375 12.7672 14.3033 12.6863 14.4121 12.5871C14.521 12.4888 14.6106 12.3397 14.6633 11.9908C14.675 11.9098 14.6842 11.8236 14.6918 11.7297Z" fill="#707070"/>
</svg>
