<svg width="20" height="16" viewBox="0 0 20 16" fill="none" xmlns="http://www.w3.org/2000/svg">
<g id="Group">
<path id="Vector" d="M8.28975 10.7224L10.8414 11.5001C10.8414 11.5001 17.2205 10.3336 18.0711 10.3336C18.9216 10.3336 18.9216 11.1113 18.0711 11.8889C17.2205 12.6666 14.2436 14.9995 11.6919 14.9995C9.1403 14.9995 7.4392 13.8331 5.7381 13.8331H1.48535" stroke="#707070" stroke-linecap="round" stroke-linejoin="round"/>
<path id="Vector_2" d="M1.48535 9.16585C2.3359 8.3882 4.037 7.22172 5.7381 7.22172C7.4392 7.22172 11.4793 8.77703 12.1172 9.55468C12.7551 10.3323 10.8414 11.4988 10.8414 11.4988M6.58865 4.88876V1.77814C6.58865 1.5719 6.67826 1.3741 6.83777 1.22826C6.99728 1.08242 7.21362 1.00049 7.4392 1.00049H17.6458C17.8714 1.00049 18.0877 1.08242 18.2472 1.22826C18.4067 1.3741 18.4963 1.5719 18.4963 1.77814V7.99937" stroke="#707070" stroke-linecap="round" stroke-linejoin="round"/>
<path id="Vector_3" d="M10.4187 1.00049H14.6714V4.49993H10.4187V1.00049Z" stroke="#707070" stroke-linecap="round" stroke-linejoin="round"/>
</g>
</svg>
