<svg width="16" height="16" viewBox="0 0 16 16" fill="none" xmlns="http://www.w3.org/2000/svg">
<g id="Time Circle 6">
<path id="Vector" d="M8.49992 5.83331C8.49992 5.55717 8.27606 5.33331 7.99992 5.33331C7.72378 5.33331 7.49992 5.55717 7.49992 5.83331L8.49992 5.83331ZM9.99992 9.66665C10.2761 9.66665 10.4999 9.44279 10.4999 9.16665C10.4999 8.8905 10.2761 8.66665 9.99992 8.66665V9.66665ZM1.68757 2.27621C1.47194 2.44872 1.43698 2.76336 1.60948 2.97899C1.78199 3.19462 2.09664 3.22959 2.31227 3.05708L1.68757 2.27621ZM3.97893 1.72375C4.19456 1.55124 4.22952 1.2366 4.05702 1.02097C3.88451 0.805335 3.56987 0.770374 3.35424 0.942879L3.97893 1.72375ZM13.6876 3.05708C13.9032 3.22959 14.2178 3.19462 14.3904 2.97899C14.5629 2.76336 14.5279 2.44872 14.3123 2.27621L13.6876 3.05708ZM12.6456 0.942879C12.43 0.770374 12.1153 0.805335 11.9428 1.02097C11.7703 1.2366 11.8053 1.55124 12.0209 1.72375L12.6456 0.942879ZM7.99992 8.16665H7.49992H7.99992ZM7.49992 5.83331V8.16665H8.49992L8.49992 5.83331L7.49992 5.83331ZM14.1666 8.49998C14.1666 11.9057 11.4057 14.6666 7.99992 14.6666V15.6666C11.958 15.6666 15.1666 12.458 15.1666 8.49998H14.1666ZM7.99992 14.6666C4.59416 14.6666 1.83325 11.9057 1.83325 8.49998H0.833252C0.833252 12.458 4.04188 15.6666 7.99992 15.6666V14.6666ZM1.83325 8.49998C1.83325 5.09422 4.59416 2.33331 7.99992 2.33331V1.33331C4.04188 1.33331 0.833252 4.54194 0.833252 8.49998H1.83325ZM7.99992 2.33331C11.4057 2.33331 14.1666 5.09422 14.1666 8.49998H15.1666C15.1666 4.54194 11.958 1.33331 7.99992 1.33331V2.33331ZM2.31227 3.05708L3.97893 1.72375L3.35424 0.942879L1.68757 2.27621L2.31227 3.05708ZM14.3123 2.27621L12.6456 0.942879L12.0209 1.72375L13.6876 3.05708L14.3123 2.27621ZM8.99992 9.66665H9.99992V8.66665H8.99992V9.66665ZM7.49992 8.16665C7.49992 8.99507 8.17149 9.66665 8.99992 9.66665V8.66665C8.72378 8.66665 8.49992 8.44279 8.49992 8.16665H7.49992Z" fill="#434343"/>
</g>
</svg>
