<svg width="57" height="23" viewBox="0 0 57 23" fill="none" xmlns="http://www.w3.org/2000/svg">
<g id="Group 48097704">
<path id="Rectangle 634" d="M0 0H57V23H1C0.447715 23 0 22.5523 0 22V0Z" fill="#777B80" fill-opacity="0.65"/>
<path id="Vector" d="M37.53 7.15C37.378 7.06223 37.2055 7.01603 37.03 7.01603C36.8545 7.01603 36.682 7.06223 36.53 7.15L33 8.89C32.9715 8.11357 32.6429 7.37847 32.0834 6.83944C31.5238 6.3004 30.777 5.99948 30 6H21C20.2044 6 19.4413 6.31607 18.8787 6.87868C18.3161 7.44129 18 8.20435 18 9V15C18 15.7956 18.3161 16.5587 18.8787 17.1213C19.4413 17.6839 20.2044 18 21 18H30C30.777 18.0005 31.5238 17.6996 32.0834 17.1606C32.6429 16.6215 32.9715 15.8864 33 15.11L36.56 16.89C36.6963 16.9599 36.8468 16.9975 37 17C37.1872 17.0006 37.3709 16.9486 37.53 16.85C37.6741 16.7599 37.7929 16.6346 37.8751 16.4859C37.9574 16.3372 38.0003 16.1699 38 16V8C38.0003 7.83006 37.9574 7.66283 37.8751 7.51411C37.7929 7.36538 37.6741 7.24007 37.53 7.15ZM31 15C31 15.2652 30.8946 15.5196 30.7071 15.7071C30.5196 15.8946 30.2652 16 30 16H21C20.7348 16 20.4804 15.8946 20.2929 15.7071C20.1054 15.5196 20 15.2652 20 15V9C20 8.73478 20.1054 8.48043 20.2929 8.29289C20.4804 8.10536 20.7348 8 21 8H30C30.2652 8 30.5196 8.10536 30.7071 8.29289C30.8946 8.48043 31 8.73478 31 9V15ZM36 14.38L33 12.88V11.12L36 9.62V14.38Z" fill="white"/>
</g>
</svg>
